<svg xmlns="http://www.w3.org/2000/svg" viewBox="0 0 141.68 137.71"><defs><style>.cls-1{stroke:#000;stroke-width:3.61px;}.cls-2{fill:#a3c380;}</style></defs><title>Asset 2</title><g id="Layer_2" data-name="Layer 2"><g id="OptimaOT_LOGO_copy" data-name="OptimaOT LOGO copy"><path class="cls-1" d="M70.7,1.81q28.94,0,49.06,19.51T139.88,68.9q0,28-20.12,47.5T70.7,135.9q-28.85,0-48.87-19.51t-20-47.5q0-28.07,20-47.58T70.7,1.81Zm.37,124.7q24.4,0,41.18-16.69T129,68.9q0-24.31-16.78-41T71.07,11.2q-24.49,0-41.46,16.69t-17,41q0,24.23,17,40.92T71.07,126.5Z"/><path class="cls-2" d="M41.34,38.91H99v8.86H75v60.36H65V47.77H41.34Z"/></g></g></svg>